<?xml version="1.0" encoding="UTF-8" standalone="no"?>
<!-- Created with Inkscape (http://www.inkscape.org/) -->

<svg
   xmlns:dc="http://purl.org/dc/elements/1.1/"
   xmlns:cc="http://creativecommons.org/ns#"
   xmlns:rdf="http://www.w3.org/1999/02/22-rdf-syntax-ns#"
   xmlns:svg="http://www.w3.org/2000/svg"
   xmlns="http://www.w3.org/2000/svg"
   xmlns:sodipodi="http://sodipodi.sourceforge.net/DTD/sodipodi-0.dtd"
   xmlns:inkscape="http://www.inkscape.org/namespaces/inkscape"
   id="svg2"
   version="1.1"
   inkscape:version="0.48.4 r9939"
   width="318.12167"
   height="145.63403"
   xml:space="preserve"
   sodipodi:docname="logo-abinit-2015.svg"><metadata
     id="metadata8"><rdf:RDF><cc:Work
         rdf:about=""><dc:format>image/svg+xml</dc:format><dc:type
           rdf:resource="http://purl.org/dc/dcmitype/StillImage" /><dc:title /></cc:Work></rdf:RDF></metadata><defs
     id="defs6"><clipPath
       clipPathUnits="userSpaceOnUse"
       id="clipPath16"><path
         d="m 361.261,399.102 c -1.861,-0.081 -3.496,-0.166 -5.614,-0.286 l 0,0 -2.447,-0.15 -2.862,-0.191 c -3.761,-0.262 -7.473,-0.558 -11.278,-0.904 l 0,0 c -15.212,-1.367 -30.658,-3.527 -43.576,-5.94 l 0,0 c -13.014,-2.419 -23.79,-5.046 -32.578,-7.639 l 0,0 c -17.37,-5.194 -28.241,-10.35 -31.852,-14.866 l 0,0 c 5.26,2.461 11.249,4.909 18.3,7.345 l 0,0 c 6.961,2.432 14.99,4.846 23.951,7.165 l 0,0 c 8.957,2.315 19.034,4.538 29.987,6.453 l 0,0 c 10.938,1.919 22.739,3.485 34.438,4.518 l 0,0 c 2.91,0.26 5.878,0.491 8.704,0.683 l 0,0 2.063,0.137 2.441,0.146 c 1.111,0.062 2.697,0.152 3.993,0.21 l 0,0 c 5.444,0.251 10.59,0.343 15.394,0.302 l 0,0 c 9.54,-0.106 17.617,-0.758 23.907,-1.791 l 0,0 c 6.226,-1.044 11.171,-2.393 13.841,-4.059 l 0,0 c 1.323,-0.832 2.241,-1.73 1.912,-2.745 l 0,0 c -0.126,-0.503 -0.542,-1.036 -1.662,-1.602 l 0,0 c -1.049,-0.559 -2.92,-1.177 -6.084,-1.716 l 0,0 c 3.485,0.388 6.664,1.099 8.761,1.762 l 0,0 c 2.117,0.674 3.474,1.335 4.508,1.969 l 0,0 c 1.89,1.258 2.478,2.422 2.249,3.488 l 0,0 c -0.571,2.123 -3.831,3.961 -9.847,5.37 l 0,0 c -5.988,1.405 -14.724,2.423 -26.707,2.648 l 0,0 c -1.583,0.031 -3.223,0.047 -4.916,0.047 l 0,0 c -4.671,0 -9.732,-0.119 -15.026,-0.354"
         id="path18"
         inkscape:connector-curvature="0" /></clipPath><linearGradient
       x1="0"
       y1="0"
       x2="1"
       y2="0"
       gradientUnits="userSpaceOnUse"
       gradientTransform="matrix(-186.74947,0,0,186.74947,417.80396,384.29086)"
       spreadMethod="pad"
       id="linearGradient24"><stop
         style="stop-opacity:1;stop-color:#f1923d"
         offset="0"
         id="stop26" /><stop
         style="stop-opacity:1;stop-color:#e9643b"
         offset="0.431763"
         id="stop28" /><stop
         style="stop-opacity:1;stop-color:#e9643b"
         offset="0.431763"
         id="stop30" /><stop
         style="stop-opacity:1;stop-color:#e33a37"
         offset="0.828491"
         id="stop32" /><stop
         style="stop-opacity:1;stop-color:#e33a37"
         offset="1"
         id="stop34" /></linearGradient><clipPath
       clipPathUnits="userSpaceOnUse"
       id="clipPath42"><path
         d="m 0,841.89 595.28,0 L 595.28,0 0,0 0,841.89 z"
         id="path44"
         inkscape:connector-curvature="0" /></clipPath><clipPath
       clipPathUnits="userSpaceOnUse"
       id="clipPath54"><path
         d="m 380.041,463.387 c -6.049,-3.07 -12.494,-5.861 -19.708,-8.532 l 0,0 c -7.647,-2.865 -16.348,-5.635 -25.859,-8.234 l 0,0 c -10.379,-2.832 -21.285,-5.279 -32.415,-7.276 l 0,0 c -12.011,-2.162 -24.893,-3.845 -37.257,-4.866 l 0,0 c -3.122,-0.261 -6.29,-0.489 -9.419,-0.677 l 0,0 -2.233,-0.128 -2.691,-0.139 c -1.2,-0.056 -2.889,-0.135 -4.276,-0.182 l 0,0 c -3.414,-0.122 -6.824,-0.184 -10.133,-0.184 l 0,0 c -2.192,0 -4.385,0.027 -6.515,0.08 l 0,0 c -9.852,0.277 -18.778,1.162 -25.811,2.559 l 0,0 c -7.011,1.417 -12.1,3.146 -14.713,4.997 l 0,0 c -2.022,1.441 -1.822,2.143 -1.743,2.428 l 0,0 c 0.036,0.161 0.144,0.653 1.364,1.323 l 0,0 c 0.859,0.499 2.649,1.228 6.293,1.864 l 0,0 -0.252,1.781 c -3.407,-0.369 -7.027,-1.126 -9.689,-2.024 l 0,0 c -2.069,-0.703 -3.684,-1.469 -5.115,-2.43 l 0,0 c -2.189,-1.596 -3.119,-3.307 -2.755,-5.124 l 0,0 c 0.735,-2.973 4.559,-5.435 11.366,-7.315 l 0,0 c 7.244,-2.005 17.075,-3.247 29.217,-3.692 l 0,0 c 3.102,-0.117 6.438,-0.176 9.917,-0.176 l 0,0 c 3.767,0 7.733,0.069 11.79,0.207 l 0,0 c 2.023,0.065 3.8,0.141 6.109,0.25 l 0,0 2.659,0.14 3.109,0.183 c 4.156,0.257 8.166,0.552 12.253,0.902 l 0,0 c 15.902,1.343 32.715,3.635 47.342,6.454 l 0,0 c 13.037,2.5 24.946,5.43 35.398,8.712 l 0,0 c 18.775,5.973 30.844,12.118 34.905,17.771 l 0,0 2.155,2.999 -3.293,-1.671 z"
         id="path56"
         inkscape:connector-curvature="0" /></clipPath><linearGradient
       x1="0"
       y1="0"
       x2="1"
       y2="0"
       gradientUnits="userSpaceOnUse"
       gradientTransform="matrix(-206.29733,0,0,206.29733,383.33398,446.24841)"
       spreadMethod="pad"
       id="linearGradient62"><stop
         style="stop-opacity:1;stop-color:#f1923d"
         offset="0"
         id="stop64" /><stop
         style="stop-opacity:1;stop-color:#e9643b"
         offset="0.431763"
         id="stop66" /><stop
         style="stop-opacity:1;stop-color:#e9643b"
         offset="0.431763"
         id="stop68" /><stop
         style="stop-opacity:1;stop-color:#e33a37"
         offset="0.828491"
         id="stop70" /><stop
         style="stop-opacity:1;stop-color:#e33a37"
         offset="1"
         id="stop72" /></linearGradient><clipPath
       clipPathUnits="userSpaceOnUse"
       id="clipPath80"><path
         d="m 0,841.89 595.28,0 L 595.28,0 0,0 0,841.89 z"
         id="path82"
         inkscape:connector-curvature="0" /></clipPath></defs><sodipodi:namedview
     pagecolor="#ffffff"
     bordercolor="#666666"
     borderopacity="1"
     objecttolerance="10"
     gridtolerance="10"
     guidetolerance="10"
     inkscape:pageopacity="0"
     inkscape:pageshadow="2"
     inkscape:window-width="1855"
     inkscape:window-height="1056"
     id="namedview4"
     showgrid="false"
     fit-margin-top="0"
     fit-margin-left="0"
     fit-margin-right="0"
     fit-margin-bottom="0"
     inkscape:zoom="3.5881169"
     inkscape:cx="131.5546"
     inkscape:cy="63.14986"
     inkscape:window-x="1985"
     inkscape:window-y="24"
     inkscape:window-maximized="1"
     inkscape:current-layer="g10"
     inkscape:showpageshadow="false"
     borderlayer="false" /><g
     inkscape:groupmode="layer"
     id="layer1"
     inkscape:label="Background"
     transform="translate(-0.00588972,-0.01881605)"><rect
       style="fill:#ffffff;fill-opacity:1;fill-rule:nonzero;stroke:none"
       id="rect3036"
       width="318.12167"
       height="145.63403"
       x="0.0058897161"
       y="0.018816048" /></g><g
     id="g10"
     inkscape:groupmode="layer"
     inkscape:label="Logo"
     transform="matrix(1.25,0,0,-1.25,-212.16634,599.03429)"><g
       id="g12"><g
         id="g14"
         clip-path="url(#clipPath16)"><g
           id="g20"><g
             id="g22"><path
               d="m 361.261,399.102 c -1.861,-0.081 -3.496,-0.166 -5.614,-0.286 l 0,0 -2.447,-0.15 -2.862,-0.191 c -3.761,-0.262 -7.473,-0.558 -11.278,-0.904 l 0,0 c -15.212,-1.367 -30.658,-3.527 -43.576,-5.94 l 0,0 c -13.014,-2.419 -23.79,-5.046 -32.578,-7.639 l 0,0 c -17.37,-5.194 -28.241,-10.35 -31.852,-14.866 l 0,0 c 5.26,2.461 11.249,4.909 18.3,7.345 l 0,0 c 6.961,2.432 14.99,4.846 23.951,7.165 l 0,0 c 8.957,2.315 19.034,4.538 29.987,6.453 l 0,0 c 10.938,1.919 22.739,3.485 34.438,4.518 l 0,0 c 2.91,0.26 5.878,0.491 8.704,0.683 l 0,0 2.063,0.137 2.441,0.146 c 1.111,0.062 2.697,0.152 3.993,0.21 l 0,0 c 5.444,0.251 10.59,0.343 15.394,0.302 l 0,0 c 9.54,-0.106 17.617,-0.758 23.907,-1.791 l 0,0 c 6.226,-1.044 11.171,-2.393 13.841,-4.059 l 0,0 c 1.323,-0.832 2.241,-1.73 1.912,-2.745 l 0,0 c -0.126,-0.503 -0.542,-1.036 -1.662,-1.602 l 0,0 c -1.049,-0.559 -2.92,-1.177 -6.084,-1.716 l 0,0 c 3.485,0.388 6.664,1.099 8.761,1.762 l 0,0 c 2.117,0.674 3.474,1.335 4.508,1.969 l 0,0 c 1.89,1.258 2.478,2.422 2.249,3.488 l 0,0 c -0.571,2.123 -3.831,3.961 -9.847,5.37 l 0,0 c -5.988,1.405 -14.724,2.423 -26.707,2.648 l 0,0 c -1.583,0.031 -3.223,0.047 -4.916,0.047 l 0,0 c -4.671,0 -9.732,-0.119 -15.026,-0.354"
               style="fill:url(#linearGradient24);stroke:none"
               id="path36"
               inkscape:connector-curvature="0" /></g></g></g></g><g
       id="g38"><g
         id="g40"
         clip-path="url(#clipPath42)"><g
           id="g46"
           transform="translate(245.9614,428.8261)"><path
             d="m 0,0 c -1.136,2.349 -2.193,4.835 -3.172,7.459 -0.979,2.623 -1.87,5.334 -2.672,8.134 -0.803,2.799 -1.468,5.657 -1.996,8.575 -0.529,2.916 -0.892,5.824 -1.087,8.722 -0.432,-0.627 -1.273,-1.997 -2.526,-4.112 -1.253,-2.114 -2.799,-4.708 -4.639,-7.782 -1.841,-3.074 -3.897,-6.519 -6.167,-10.336 -2.271,-3.818 -4.602,-7.743 -6.989,-11.776 m 1.243,-0.187 c -2.272,-3.877 -4.484,-7.606 -6.637,-11.189 -2.154,-3.582 -4.12,-6.813 -5.903,-9.69 -1.781,-2.878 -3.289,-5.266 -4.522,-7.166 -1.233,-1.898 -2.085,-3.102 -2.555,-3.611 -0.665,-0.705 -1.272,-1.155 -1.82,-1.351 -0.548,-0.196 -0.979,-0.196 -1.293,0 -0.312,0.196 -0.459,0.578 -0.44,1.145 0.02,0.568 0.304,1.283 0.852,2.143 0.196,0.353 0.832,1.401 1.908,3.143 1.078,1.742 2.458,3.974 4.141,6.695 1.684,2.722 3.593,5.815 5.726,9.28 2.134,3.465 4.376,7.096 6.725,10.894 m -1.243,-0.164 c 1.448,2.349 2.897,4.698 4.346,7.047 1.449,2.349 2.858,4.64 4.229,6.872 1.37,2.232 2.692,4.375 3.964,6.431 1.272,2.055 2.457,3.964 3.554,5.726 2.584,4.15 5.03,8.085 7.341,11.805 -0.197,0.743 -0.333,1.468 -0.411,2.173 -0.079,0.587 -0.079,1.194 0,1.821 0.078,0.625 0.294,1.154 0.646,1.586 0.352,0.39 0.969,0.743 1.85,1.057 0.881,0.312 1.821,0.518 2.819,0.616 0.999,0.098 1.968,0.068 2.907,-0.088 0.94,-0.157 1.645,-0.49 2.115,-0.998 0.235,-0.275 0.44,-1.087 0.617,-2.438 0.175,-1.35 0.381,-3.093 0.616,-5.227 0.235,-2.134 0.548,-4.571 0.94,-7.312 0.391,-2.741 0.9,-5.638 1.527,-8.692 C 4.62,16.151 5.422,13.028 6.401,9.838 7.38,6.646 8.575,3.543 9.984,0.529 m 0.473,-0.75 c 1.331,-1.801 2.878,-3.465 4.64,-4.992 0.822,-0.705 1.331,-1.39 1.527,-2.056 0.195,-0.665 0.059,-1.233 -0.411,-1.703 -0.47,-0.469 -1.283,-0.772 -2.438,-0.91 -1.154,-0.137 -2.633,-0.029 -4.433,0.323 -1.254,0.235 -2.673,1.126 -4.258,2.672 -1.587,1.546 -3.241,3.592 -4.963,6.138"
             style="fill:#5c5c5b;fill-opacity:1;fill-rule:nonzero;stroke:none"
             id="path48"
             inkscape:connector-curvature="0" /></g></g></g><g
       id="g50"><g
         id="g52"
         clip-path="url(#clipPath54)"><g
           id="g58"><g
             id="g60"><path
               d="m 380.041,463.387 c -6.049,-3.07 -12.494,-5.861 -19.708,-8.532 l 0,0 c -7.647,-2.865 -16.348,-5.635 -25.859,-8.234 l 0,0 c -10.379,-2.832 -21.285,-5.279 -32.415,-7.276 l 0,0 c -12.011,-2.162 -24.893,-3.845 -37.257,-4.866 l 0,0 c -3.122,-0.261 -6.29,-0.489 -9.419,-0.677 l 0,0 -2.233,-0.128 -2.691,-0.139 c -1.2,-0.056 -2.889,-0.135 -4.276,-0.182 l 0,0 c -3.414,-0.122 -6.824,-0.184 -10.133,-0.184 l 0,0 c -2.192,0 -4.385,0.027 -6.515,0.08 l 0,0 c -9.852,0.277 -18.778,1.162 -25.811,2.559 l 0,0 c -7.011,1.417 -12.1,3.146 -14.713,4.997 l 0,0 c -2.022,1.441 -1.822,2.143 -1.743,2.428 l 0,0 c 0.036,0.161 0.144,0.653 1.364,1.323 l 0,0 c 0.859,0.499 2.649,1.228 6.293,1.864 l 0,0 -0.252,1.781 c -3.407,-0.369 -7.027,-1.126 -9.689,-2.024 l 0,0 c -2.069,-0.703 -3.684,-1.469 -5.115,-2.43 l 0,0 c -2.189,-1.596 -3.119,-3.307 -2.755,-5.124 l 0,0 c 0.735,-2.973 4.559,-5.435 11.366,-7.315 l 0,0 c 7.244,-2.005 17.075,-3.247 29.217,-3.692 l 0,0 c 3.102,-0.117 6.438,-0.176 9.917,-0.176 l 0,0 c 3.767,0 7.733,0.069 11.79,0.207 l 0,0 c 2.023,0.065 3.8,0.141 6.109,0.25 l 0,0 2.659,0.14 3.109,0.183 c 4.156,0.257 8.166,0.552 12.253,0.902 l 0,0 c 15.902,1.343 32.715,3.635 47.342,6.454 l 0,0 c 13.037,2.5 24.946,5.43 35.398,8.712 l 0,0 c 18.775,5.973 30.844,12.118 34.905,17.771 l 0,0 2.155,2.999 -3.293,-1.671 z"
               style="fill:url(#linearGradient62);stroke:none"
               id="path74"
               inkscape:connector-curvature="0" /></g></g></g></g><g
       id="g76"><g
         id="g78"
         clip-path="url(#clipPath80)"><g
           id="g84"
           transform="translate(386.2189,467.5317)"><path
             d="m 0,0 -6.585,-3.343 c -6.017,-3.053 -12.431,-5.83 -19.611,-8.489 -7.629,-2.858 -16.303,-5.62 -25.785,-8.211 -10.356,-2.824 -21.236,-5.266 -32.338,-7.257 -11.978,-2.157 -24.832,-3.836 -37.172,-4.856 -3.103,-0.26 -6.266,-0.487 -9.4,-0.675 l -2.235,-0.129 -2.636,-0.136 -0.1,-0.004 c -1.192,-0.056 -2.844,-0.133 -4.202,-0.18 -3.406,-0.121 -6.804,-0.183 -10.103,-0.183 -2.186,0 -4.372,0.027 -6.497,0.081 -9.796,0.275 -18.671,1.154 -25.659,2.541 -8.697,1.759 -12.614,3.609 -14.368,4.851 -1.333,0.951 -1.407,1.397 -1.408,1.402 l 0.016,0.053 0.012,0.044 c 0.015,0.066 0.211,0.338 0.899,0.716 0.833,0.484 2.519,1.164 6.032,1.777 l -0.503,3.562 c -3.52,-0.382 -7.12,-1.134 -9.877,-2.065 -2.149,-0.731 -3.832,-1.53 -5.303,-2.516 l -0.03,-0.019 -0.028,-0.022 c -2.497,-1.821 -3.545,-3.835 -3.116,-5.987 l 0.008,-0.04 0.01,-0.04 c 0.83,-3.359 4.756,-5.965 12.001,-7.967 7.31,-2.023 17.21,-3.276 29.425,-3.723 3.111,-0.118 6.458,-0.177 9.947,-0.177 3.779,0 7.757,0.07 11.822,0.207 2.121,0.07 3.979,0.151 6.115,0.251 l 2.665,0.141 3.116,0.183 c 4.148,0.256 8.163,0.551 12.281,0.903 15.932,1.346 32.779,3.643 47.435,6.467 13.067,2.506 25.01,5.445 35.494,8.736 13.228,4.209 30.096,10.766 35.369,18.106 L 0,0 z m -5.771,-4.948 c -3.88,-5.402 -15.637,-11.453 -34.446,-17.439 -9.517,-2.987 -21.191,-5.98 -35.296,-8.685 -14.001,-2.699 -30.747,-5.048 -47.247,-6.441 -4.128,-0.353 -8.154,-0.648 -12.234,-0.9 l -3.105,-0.183 -2.655,-0.14 c -2.299,-0.108 -4.072,-0.184 -6.091,-0.25 -4.067,-0.137 -8.007,-0.206 -11.761,-0.206 -3.469,0 -6.778,0.059 -9.882,0.176 -13.008,0.476 -22.499,1.857 -29.011,3.659 -6.541,1.808 -10.095,4.086 -10.733,6.664 -0.258,1.295 0.37,2.692 2.411,4.181 1.117,0.749 2.585,1.526 4.876,2.305 2.271,0.767 5.716,1.572 9.496,1.982 -3.431,-0.599 -5.456,-1.314 -6.59,-1.972 -1.211,-0.665 -1.658,-1.304 -1.79,-1.909 -0.348,-1.222 0.656,-2.324 2.098,-3.354 2.912,-2.061 8.292,-3.778 15.058,-5.146 6.836,-1.357 15.609,-2.285 25.964,-2.576 2.121,-0.053 4.303,-0.081 6.542,-0.081 3.268,0 6.659,0.059 10.164,0.184 1.407,0.048 3.128,0.129 4.333,0.186 l 2.648,0.136 2.238,0.129 c 3.066,0.184 6.286,0.413 9.441,0.678 12.69,1.049 25.486,2.743 37.342,4.878 11.873,2.129 22.792,4.646 32.494,7.293 9.706,2.652 18.402,5.436 25.936,8.259 7.633,2.827 14.113,5.685 19.8,8.572"
             style="fill:#ffffff;fill-opacity:1;fill-rule:nonzero;stroke:none"
             id="path86"
             inkscape:connector-curvature="0" /></g><g
           id="g88"
           transform="translate(270.3831,416.1951)"><path
             d="m 0,0 0,-0.482 c 0,-3.904 2.045,-6.812 6.136,-8.722 1.098,-0.321 2.087,-0.482 2.966,-0.482 l 0.583,0 c 3.804,0 6.677,2.045 8.621,6.136 0.321,1.234 0.482,2.189 0.482,2.865 l 0,0.584 c 0,3.887 -2.079,6.794 -6.238,8.722 -1.267,0.32 -2.256,0.481 -2.966,0.481 l -0.38,0 C 5.401,9.102 2.527,7.09 0.583,3.068 0.194,1.935 0,0.913 0,0 m -2.003,22.895 0.279,0 C -0.575,22.642 0,22.092 0,21.247 L 0,8.798 c 2.789,2.688 5.924,4.031 9.406,4.031 3.364,0 6.423,-1.276 9.179,-3.828 2.62,-2.755 3.93,-5.849 3.93,-9.28 0,-4.919 -2.333,-8.79 -6.998,-11.612 -2.012,-1.015 -3.955,-1.522 -5.832,-1.522 l -0.76,0 c -3.533,0 -6.821,1.657 -9.863,4.97 -1.86,2.485 -2.789,5.426 -2.789,8.823 l 0,20.867 c 0,0.845 0.574,1.395 1.724,1.648"
             style="fill:#5c5c5b;fill-opacity:1;fill-rule:nonzero;stroke:none"
             id="path90"
             inkscape:connector-curvature="0" /></g><g
           id="g92"
           transform="translate(300.4789,428.8977)"><path
             d="m 0,0 c 1.217,-0.304 1.825,-0.845 1.825,-1.623 l 0,-22.768 c 0,-0.947 -0.608,-1.522 -1.825,-1.724 l -0.101,0 c -0.964,0 -1.564,0.634 -1.801,1.901 l 0,22.033 C -1.749,-0.727 -1.116,0 0,0"
             style="fill:#5c5c5b;fill-opacity:1;fill-rule:nonzero;stroke:none"
             id="path94"
             inkscape:connector-curvature="0" /></g><g
           id="g96"
           transform="translate(310.7982,428.7201)"><path
             d="m 0,0 c 1.2,-0.304 1.8,-0.845 1.8,-1.622 l 0,-2.08 C 4.539,-1.234 7.53,0 10.776,0 c 3.567,0 6.727,-1.487 9.482,-4.462 2.012,-2.485 3.018,-5.097 3.018,-7.835 l 0,-12.043 c 0,-0.829 -0.6,-1.361 -1.8,-1.598 l -0.102,0 c -1.2,0.22 -1.8,0.82 -1.8,1.801 l 0,10.598 c 0,4.749 -2.045,7.876 -6.136,9.381 -0.997,0.254 -1.885,0.38 -2.662,0.38 l -0.279,0 C 7.065,-3.778 4.412,-5.553 2.536,-9.102 2.045,-10.184 1.8,-11.917 1.8,-14.3 l 0,-9.939 c 0,-0.93 -0.6,-1.496 -1.8,-1.699 l -0.101,0 c -0.964,0 -1.564,0.634 -1.801,1.902 l 0,21.856 C -1.749,-0.727 -1.116,0 0,0"
             style="fill:#5c5c5b;fill-opacity:1;fill-rule:nonzero;stroke:none"
             id="path98"
             inkscape:connector-curvature="0" /></g><g
           id="g100"
           transform="translate(341.7562,428.8977)"><path
             d="m 0,0 c 1.217,-0.304 1.826,-0.845 1.826,-1.623 l 0,-22.768 c 0,-0.947 -0.609,-1.522 -1.826,-1.724 l -0.101,0 c -0.964,0 -1.564,0.634 -1.8,1.901 l 0,22.033 C -1.75,-0.727 -1.116,0 0,0"
             style="fill:#5c5c5b;fill-opacity:1;fill-rule:nonzero;stroke:none"
             id="path102"
             inkscape:connector-curvature="0" /></g><g
           id="g104"
           transform="translate(355.0417,438.0254)"><path
             d="m 0,0 0.355,0 c 1.116,-0.237 1.674,-0.735 1.674,-1.496 l 0,-8.367 3.828,0 0.837,0.102 c 0.862,0 1.445,-0.626 1.749,-1.877 0,-0.845 -0.524,-1.462 -1.572,-1.851 l -1.394,0.102 -3.448,0 0,-13.666 c 0,-2.384 0.777,-3.846 2.332,-4.387 l 2.13,-0.177 1.039,0 c 0.812,0 1.336,-0.592 1.573,-1.775 l 0,-0.076 C 8.9,-34.651 8.308,-35.243 7.328,-35.243 l -1.953,0 c -2.958,0 -5.155,1.614 -6.592,4.843 -0.253,0.794 -0.38,1.724 -0.38,2.789 l 0,14.224 -1.851,0 -1.496,-0.102 c -1.048,0.372 -1.572,0.989 -1.572,1.851 0.203,1.183 0.761,1.775 1.673,1.775 l 0,0.102 0.939,-0.102 2.307,0 0,7.809 C -1.445,-0.685 -0.912,0 0,0"
             style="fill:#5c5c5b;fill-opacity:1;fill-rule:nonzero;stroke:none"
             id="path106"
             inkscape:connector-curvature="0" /></g><g
           id="g108"
           transform="translate(305.9044,438.2032)"><path
             d="m 0,0 c 0,3.065 -2.485,5.55 -5.55,5.55 -3.065,0 -5.55,-2.485 -5.55,-5.55 0,-3.065 2.485,-5.55 5.55,-5.55 C -2.485,-5.55 0,-3.065 0,0"
             style="fill:#5c5c5b;fill-opacity:1;fill-rule:nonzero;stroke:none"
             id="path110"
             inkscape:connector-curvature="0" /></g><g
           id="g112"
           transform="translate(347.9044,395.3032)"><path
             d="m 0,0 c 0,3.065 -2.485,5.55 -5.55,5.55 -3.065,0 -5.55,-2.485 -5.55,-5.55 0,-3.065 2.485,-5.55 5.55,-5.55 C -2.485,-5.55 0,-3.065 0,0"
             style="fill:#ffffff;fill-opacity:1;fill-rule:nonzero;stroke:none"
             id="path114"
             inkscape:connector-curvature="0" /></g><g
           id="g116"
           transform="translate(347.9044,395.3032)"><path
             d="m 0,0 c 0,3.065 -2.485,5.55 -5.55,5.55 -3.065,0 -5.55,-2.485 -5.55,-5.55 0,-3.065 2.485,-5.55 5.55,-5.55 C -2.485,-5.55 0,-3.065 0,0 z"
             style="fill:none;stroke:#5d5c5b;stroke-width:1;stroke-linecap:butt;stroke-linejoin:miter;stroke-miterlimit:10;stroke-opacity:1;stroke-dasharray:none"
             id="path118"
             inkscape:connector-curvature="0" /></g></g></g></g></svg>